HIERARCHY
ROOT Hips
{
  OFFSET 0 0 0
  CHANNELS 6 Xposition Yposition Zposition Zrotation Xrotation Yrotation
  JOINT Spine
  {
    OFFSET 0 10 0
    CHANNELS 3 Zrotation Xrotation Yrotation
    JOINT Neck
    {
      OFFSET 0 30 0
      CHANNELS 3 Zrotation Xrotation Yrotation
      JOINT Head
      {
        OFFSET 0 8 0
        CHANNELS 3 Zrotation Xrotation Yrotation
        End Site
        {
          OFFSET 0 10 0
        }
      }
    }
    JOINT LeftArm
    {
      OFFSET 15 30 0
      CHANNELS 3 Zrotation Xrotation Yrotation
      JOINT LeftForeArm
      {
        OFFSET 25 0 0
        CHANNELS 3 Zrotation Xrotation Yrotation
        JOINT LeftHand
        {
          OFFSET 25 0 0
          CHANNELS 3 Zrotation Xrotation Yrotation
          End Site
          {
            OFFSET 10 0 0
          }
        }
      }
    }
    JOINT RightArm
    {
      OFFSET -15 30 0
      CHANNELS 3 Zrotation Xrotation Yrotation
      JOINT RightForeArm
      {
        OFFSET -25 0 0
        CHANNELS 3 Zrotation Xrotation Yrotation
        JOINT RightHand
        {
          OFFSET -25 0 0
          CHANNELS 3 Zrotation Xrotation Yrotation
          End Site
          {
            OFFSET -10 0 0
          }
        }
      }
    }
  }
  JOINT LeftUpLeg
  {
    OFFSET 10 -10 0
    CHANNELS 3 Zrotation Xrotation Yrotation
    JOINT LeftLeg
    {
      OFFSET 0 -35 0
      CHANNELS 3 Zrotation Xrotation Yrotation
      JOINT LeftToe
      {
        OFFSET 0 -40 0
        CHANNELS 3 Zrotation Xrotation Yrotation
        JOINT LeftToeEnd
        {
          OFFSET 0 0 0
          CHANNELS 3 Zrotation Xrotation Yrotation
          End Site
          {
            OFFSET 0 0 15
          }
        }
      }
    }
  }
  JOINT RightUpLeg
  {
    OFFSET -10 -10 0
    CHANNELS 3 Zrotation Xrotation Yrotation
    JOINT RightLeg
    {
      OFFSET 0 -35 0
      CHANNELS 3 Zrotation Xrotation Yrotation
      JOINT RightToe
      {
        OFFSET 0 -40 0
        CHANNELS 3 Zrotation Xrotation Yrotation
        JOINT RightToeEnd
        {
          OFFSET 0 0 0
          CHANNELS 3 Zrotation Xrotation Yrotation
          End Site
          {
            OFFSET 0 0 15
          }
        }
      }
    }
  }
}
MOTION
Frames:	17
Frame Time:	0.0333333
75.9392 87.4063 -42.6645 -0.446735 6.8826 -49.5459 7.79858 10.4557 11.4416 -14.7904 -18.3603 -3.65348 14.421 26.9521 -12.4647 -96.0684 6.80767 6.96242 12.3787 -2.36352 -19.1406 -0.910803 9.12497 -2.19299 82.4625 30.1704 6.04074 -16.556 -4.39389 27.5637 0.393335 1.60496 -0.172794 9.26799 -29.7331 -1.15711 -0.606152 18.4294 -0.26981 -3.5723 3.21494 2.41297 7.95139e-016 0 3.18055e-015 6.79205 11.9113 0.92492 0.444635 28.4147 2.26486 -0.00536902 -12.5767 -3.68537 1.59028e-015 -1.59028e-015 -0 
74.4266 87.85 -40.1868 0.343747 5.67843 -48.1824 6.04122 10.5593 10.3005 -14.9044 -19.0005 -4.34885 14.9369 26.7657 -12.9009 -95.5177 7.2462 6.01023 12.1237 -2.23757 -18.615 -1.05415 10.1469 -2.02334 83.3857 28.7294 5.92503 -16.2199 -4.18625 26.8878 0.39593 2.30575 -0.184814 6.78629 -26.3501 -0.0870214 -0.607624 14.9191 -0.283364 -2.31006 5.31671 -0.378807 -1.98785e-016 -9.93923e-017 6.36111e-015 5.03607 13.599 -0.049932 0.226892 28.2625 2.28904 0.120638 -7.87534 -3.23083 -3.18055e-015 -6.36111e-015 -9.54166e-015 
72.822 88.2874 -37.5013 0.424221 5.22302 -47.0744 5.71057 10.3287 9.58426 -15.2846 -18.37 -4.9127 15.3803 25.5573 -13.2928 -95.4374 8.59795 5.64912 12.3199 -2.33187 -18.9417 -0.999683 9.80712 -2.07375 84.2658 27.2698 4.51916 -16.0671 -4.0968 26.6082 0.393174 2.91653 -0.204003 5.71222 -23.3151 1.35804 -0.589871 12.9629 -0.289577 -1.19869 6.51493 -2.12627 -1.89576e-022 0 -9.54166e-015 4.26018 13.1949 -0.904218 -0.00300625 31.1539 2.17163 0.381884 -1.81996 -2.36148 -3.18055e-015 -4.77083e-015 -0 
71.089 88.6901 -34.7146 0.653616 4.49952 -47.0248 4.79386 10.0716 9.6009 -15.2884 -17.7136 -5.12628 16.0672 24.7295 -13.55 -94.9529 10.6163 5.397 12.7875 -2.58036 -19.8216 -0.946239 8.80703 -2.11085 85.017 26.6716 2.98069 -15.9096 -4.01302 26.3322 0.376636 2.94769 -0.209633 4.67123 -21.3798 2.98879 -0.581722 13.9257 -0.237132 -0.360046 4.03871 -4.02918 1.2424e-017 -6.21202e-018 -0 2.67498 10.7755 -1.34082 -0.211836 36.6944 1.96357 0.116395 6.02406 -0.378417 3.18055e-015 -1.59028e-015 -3.18055e-015 
69.4437 89.0481 -32.1306 1.56415 3.30042 -46.7664 2.85748 9.87145 9.32591 -15.1144 -17.661 -5.52425 16.5873 24.5737 -13.9727 -93.9603 12.7435 4.9842 13.77 -3.1376 -21.7618 -0.933193 9.39009 -1.99867 85.2015 27.3066 2.35408 -15.6901 -3.89255 25.918 0.38089 2.98573 -0.215697 2.29661 -17.9008 3.56089 -0.57789 11.5383 -0.190011 0.485344 3.03162 -5.87029 -5.17255e-034 -3.10601e-018 -9.54166e-015 0.256693 6.45197 -1.462 -0.437398 44.4499 1.70239 0.0848056 14.158 0.0134058 0 1.59028e-015 -0 
67.9291 89.3687 -29.7293 2.2056 1.86807 -46.2478 1.08659 10.4237 8.63365 -14.8003 -18.2149 -5.79984 16.6207 25.0772 -13.9072 -92.6735 15.4578 3.94418 14.6911 -3.711 -23.5716 -0.863888 7.71723 -2.01333 85.2596 26.4844 2.8969 -15.3644 -3.71596 25.3073 0.370479 5.59807 -0.242636 -0.303366 -13.0437 3.80991 -0.573343 7.10467 -0.121955 1.36842 3.11478 -7.2722 -6.21202e-018 1.2424e-017 9.54166e-015 -1.96559 1.58625 -1.84763 -0.673404 53.0518 1.46838 0.424843 21.2182 -0.645743 -0 0 1.59028e-015 
66.4112 89.6199 -27.4633 2.38423 0.88001 -45.9505 0.0415326 10.9541 7.66871 -14.2092 -18.7004 -5.76593 16.001 25.6318 -13.1503 -91.152 16.6731 2.29811 15.2682 -4.06841 -24.6719 -0.910654 6.93954 -2.0347 85.3169 25.9345 3.33524 -15.363 -3.72136 25.321 0.34251 6.0219 -0.251975 -1.8837 -9.72116 3.16865 -0.577864 5.68761 0.0125951 1.892 2.0794 -7.25999 -0 0 1.27222e-014 -3.35973 -3.37186 -2.60237 -0.851165 60.954 1.38851 2.04171 21.0517 -4.18464 -3.18055e-015 1.78906e-015 -0 
64.8809 89.7542 -25.2012 2.25504 0.376187 -45.1974 -0.178628 11.1031 6.44518 -13.9117 -18.4337 -5.93288 15.7064 25.6262 -12.7227 -89.6461 17.1627 0.479046 15.5953 -4.26435 -25.2512 -0.944525 6.5614 -2.03559 85.6668 24.4858 3.41422 -15.4767 -3.78018 25.5411 0.333117 5.47697 -0.257534 -2.74842 -6.85943 3.06775 -0.559498 4.94254 0.140733 2.3123 0.473193 -7.30794 -9.93923e-017 4.96962e-017 1.59028e-014 -4.05067 -8.03725 -3.87175 -0.986055 67.1113 1.4283 1.98579 14.1088 -6.1662 3.18055e-015 1.59028e-015 -1.19271e-015 
63.3371 89.675 -22.9637 1.98585 -0.0589986 -44.6853 -0.0864166 11.179 5.43659 -13.7479 -18.2375 -5.98557 15.7593 26.2152 -12.3977 -87.9782 18.4379 -1.35207 15.7333 -4.34037 -25.4668 -1.1095 5.41062 -2.01177 85.9571 23.5211 3.18999 -15.765 -3.9306 26.0889 0.354847 4.3927 -0.256897 -3.57088 -2.68039 3.40582 -0.519498 2.14266 0.258554 2.71514 -0.900618 -8.21943 3.10601e-018 3.10601e-018 3.18055e-015 -4.44746 -12.6228 -4.66766 -1.0383 70.8243 1.35552 1.31234 8.72625 -6.92599 9.54166e-015 3.18055e-015 1.59028e-015 
61.7888 89.5337 -20.7752 1.69261 -0.265904 -44.019 0.148148 11.2374 4.16556 -13.2585 -18.3174 -6.06216 15.4682 26.7571 -11.9068 -85.949 20.1117 -3.50608 15.7989 -4.38173 -25.5419 -1.07658 4.06748 -2.13936 86.0421 23.6048 2.98095 -16.2786 -4.205 27.019 0.403858 2.92247 -0.180905 -3.81825 -2.44687 3.56208 -0.427527 5.78705 0.330897 2.91245 -4.48937 -8.14949 1.21329e-020 -2.42657e-020 3.18055e-015 -4.43302 -17.07 -5.28174 -1.04433 71.9381 1.2266 0.206534 3.87784 -6.14798 -6.36111e-015 -1.59028e-015 3.18055e-015 
60.2461 89.0235 -18.6884 1.4752 -0.57995 -43.4828 0.117208 11.463 3.15542 -12.7039 -18.373 -6.23063 15.3452 27.1633 -11.7046 -84.9485 20.0214 -4.64126 16.4889 -4.86319 -26.8946 -0.928088 6.84808 -2.02097 86.1882 23.2792 2.89896 -16.6841 -4.44763 27.8131 0.400491 2.75645 -0.183988 -4.17307 -3.77448 1.6397 -0.363789 13.0318 0.469475 3.13337 -9.83078 -5.60997 -6.21202e-018 0 3.18055e-015 -4.27905 -21.1614 -5.55737 -0.921528 71.0355 0.968827 -0.970725 -1.32141 -4.58548 -3.18055e-015 1.59028e-015 -0 
58.5724 88.4782 -16.6289 1.8952 -1.10313 -43.3672 -0.915615 11.4825 2.4122 -11.6199 -18.8541 -6.25587 14.9523 28.0174 -11.3525 -81.7305 22.2217 -7.5273 16.0843 -4.58248 -26.0212 -1.03153 5.6414 -2.00397 86.4727 24.0923 2.87838 -17.1048 -4.70616 28.6232 0.396837 2.28491 -0.162857 -5.25261 -3.89166 2.05579 -0.268107 16.8227 0.553571 3.51366 -13.0747 -4.90209 -9.93923e-017 0 -3.18055e-015 -4.63711 -24.9765 -5.32186 -0.692151 68.2712 0.591558 -1.46717 -4.84491 -5.49527 -3.53113e-031 6.36111e-015 3.18055e-015 
56.8867 87.886 -14.6506 2.08831 -1.24678 -43.0265 -1.3897 11.5216 1.09769 -10.7318 -18.903 -6.31085 14.5426 27.9452 -10.6779 -79.5217 23.2405 -9.24992 16.3383 -4.76631 -26.5239 -1.03902 5.36684 -1.98083 86.769 24.1941 3.29029 -17.1937 -4.76017 28.7881 0.397883 2.61346 -0.176122 -5.71722 -3.38345 1.94888 -0.20884 19.6851 0.603773 3.51964 -16.2874 -3.87874 -5.51738e-033 -4.96962e-017 -6.36111e-015 -4.42334 -28.0228 -5.34395 -0.415765 63.5398 0.209898 -1.92309 -7.9517 -8.89832 -3.18055e-015 -4.77083e-015 6.36111e-015 
55.1112 87.4729 -12.5727 2.38233 -1.22675 -42.8909 -1.70835 11.1422 0.541396 -10.3655 -18.8373 -6.46602 14.6665 28.2871 -10.7743 -77.6771 24.5997 -10.817 16.4458 -4.84607 -26.7003 -1.07577 5.36135 -1.91142 87.2329 23.6907 3.16543 -17.2845 -4.81837 28.9761 0.397476 2.45493 -0.161913 -6.11393 -1.91252 1.99921 -0.169074 20.3371 0.63897 3.82717 -18.2631 -4.64214 9.93923e-017 -1.98785e-016 -3.18055e-015 -4.10989 -30.2853 -5.08528 -0.208129 56.8873 -0.0324893 -2.16669 -8.6242 -9.09691 4.77083e-015 1.59028e-015 -0 
53.2783 87.2321 -10.4244 2.60875 -1.04384 -43.022 -1.77291 10.7283 0.0799501 -9.77281 -18.7074 -6.42365 14.0502 28.3486 -10.4797 -76.4018 25.4683 -11.9276 16.7098 -5.03517 -27.2057 -1.05229 4.98882 -1.9629 87.5335 23.4955 2.94585 -17.3176 -4.83683 29.0367 0.397473 1.77345 -0.151623 -6.31009 0.576816 2.10616 -0.189658 19.038 0.627001 3.70298 -19.3842 -3.41721 -9.93923e-017 9.93923e-017 3.18055e-015 -3.68456 -31.8003 -4.86558 -0.0385986 49.0663 -0.163654 -1.93641 -7.27761 -9.69917 -1.59028e-015 -7.95139e-016 -6.36111e-015 
51.439 87.0168 -8.39861 3.20908 -0.949078 -42.6635 -2.30428 10.3009 -0.609921 -9.60901 -18.8277 -6.88279 14.1215 28.75 -10.9225 -75.2023 26.2351 -12.9361 17.0037 -5.25624 -27.7786 -0.991221 5.12804 -1.95424 88.3105 22.3074 2.84754 -17.1635 -4.73296 28.7243 0.404883 2.65166 -0.171559 -6.74645 3.45195 1.77291 -0.220402 16.4716 0.621258 3.75164 -19.6317 -3.77176 0 0 -6.36111e-015 -3.78931 -33.3495 -4.71825 0.0679031 41.392 -0.246267 -1.15499 -2.89131 -8.76839 3.97569e-016 3.97569e-016 -6.36111e-015 
49.5436 86.7679 -6.27688 3.5028 -0.783339 -42.3692 -2.30585 9.89376 -1.12986 -9.82674 -18.7608 -7.26996 14.4787 28.7503 -11.2716 -74.2874 27.184 -13.9185 17.1162 -5.34239 -27.9721 -0.975116 5.10359 -1.93535 88.425 22.8256 2.08895 -17.2386 -4.78141 28.8614 0.410831 1.80654 -0.112241 -6.83192 6.65793 2.12987 -0.253654 13.718 0.555712 3.19991 -19.9703 -4.23514 1.98785e-016 1.98785e-016 6.36111e-015 -3.57589 -34.3778 -3.9509 0.144524 34.8972 -0.258508 -1.19715 -0.807046 -6.8864 9.93923e-017 -9.93923e-017 -3.18055e-015 
